<svg xmlns="http://www.w3.org/2000/svg" viewBox="0 0 427.35 50.22" width="427.35" height="50.22"><defs><style>.cls-1{fill:#fff;}</style></defs><title>Asset 2</title><g id="Layer_2" data-name="Layer 2"><g id="Layer_1-2" data-name="Layer 1"><path class="cls-1" d="M140.06,28.33V43.63h44.86v6.49h-51.4V.09h51.41V6.45H140.08V21.79H172v6.53Z"/><path class="cls-1" d="M312.66,0h1q17.81,0,35.63,0c6.21,0,10.92,2.65,13.52,8.37a14,14,0,0,1-8.94,19.35l-1.1.32,11.3,22h-7.32L345.64,28.39H319.1V50.08h-6.44Zm6.46,21.79h30.59a7.56,7.56,0,0,0,7.84-7.74,7.52,7.52,0,0,0-7.81-7.51H320.36c-.42,0-.88-.14-1.24.13Z"/><path class="cls-1" d="M34.32.08,12.24,43.18,7.46,33.83Q3.94,27,.41,20.08A3.57,3.57,0,0,1,0,18.36C0,14.8,0,11.24,0,7.69,0,3.06,3.1.07,7.73.07H34.32Z"/><path class="cls-1" d="M15.9,49.94,37.9,7l5.47,10.65c2.06,4,4.1,8,6.17,12a5.17,5.17,0,0,1,.61,2.51c0,3.4,0,6.79,0,10.19,0,4.67-3.08,7.73-7.71,7.73H17.12A2,2,0,0,1,15.9,49.94Z"/><path class="cls-1" d="M244.79,8.19l-5.23,4a24.81,24.81,0,0,0-12-5.3c-7.74-1.17-14.94.19-21.13,5.17-9.27,7.45-8.86,19.59.77,26.6a27.4,27.4,0,0,0,31.66-.22l.8-.58,5.22,4a27.25,27.25,0,0,1-9.45,5.88C224,51.87,213.14,51,203.25,43.84c-7.25-5.24-11-12.45-9.86-21.63.92-7.23,5-12.59,10.83-16.63,11.69-8,28.64-7.27,39.52,1.71C244.08,7.56,244.4,7.85,244.79,8.19Z"/><path class="cls-1" d="M397.95,7.15l-22,42.95h-7.33L394.3.06h7.32l25.64,50h-7.33Z"/><path class="cls-1" d="M95.94,43l22-42.92h7.34L99.54,50.21c-2.41-.13-4.75-.11-7.19,0L66.62.11H74Z"/><path class="cls-1" d="M281.89,6.42V50h-6.48V6.51H252.92V.08h51.39V6.42Z"/><path class="cls-1" d="M8.65,50C3.71,50.56.07,47.41,0,42.65c0-3,0-5.95.25-9Z"/><path class="cls-1" d="M49.93,16.58,41.53.24a7.18,7.18,0,0,1,8.56,6.44c.11,1.35,0,2.71.05,4.07,0,1.91,0,3.83,0,5.74Z"/><path class="cls-1" d="M419,4.14A4.06,4.06,0,0,1,423.28.08a4.11,4.11,0,0,1,4.07,4.17,4.16,4.16,0,0,1-4.23,4.14A4.11,4.11,0,0,1,419,4.14Zm7.7.09A3.55,3.55,0,0,0,423.15.65a3.7,3.7,0,0,0-3.59,3.62,3.65,3.65,0,0,0,3.57,3.5A3.5,3.5,0,0,0,426.72,4.24Z"/><path class="cls-1" d="M425.18,6.39a1,1,0,0,1-.84.12c-.77-.56-.53-1.87-1.71-2-.39.67-.09,1.29-.27,1.87a.65.65,0,0,1-.85,0V1.79h1.81c.73,0,1.51,0,1.84.81S425,4,424.26,4.48ZM422.5,2.48a1.91,1.91,0,0,0,.07,1.41c.72,0,1.57.27,1.72-.93A1.64,1.64,0,0,0,422.5,2.48Z"/></g></g></svg>